
<svg width="203" height="65" viewBox="0 0 203 65" fill="none" xmlns="http://www.w3.org/2000/svg">
<path d="M13.76 53.12C10.3467 53.12 7.63735 52.3947 5.63201 50.944C3.62668 49.4933 2.17601 47.4453 1.28001 44.8C0.426681 42.112 1.38283e-05 38.9547 1.38283e-05 35.328V17.92C1.38283e-05 14.208 0.426681 11.008 1.28001 8.32001C2.13335 5.63201 3.62668 3.58401 5.76001 2.17601C7.93601 0.725346 10.9227 1.14441e-05 14.72 1.14441e-05C18.2613 1.14441e-05 21.0773 0.597346 23.168 1.79202C25.2587 2.98668 26.752 4.71468 27.648 6.97601C28.5867 9.19468 29.056 11.904 29.056 15.104V17.792H20.032V14.848C20.032 13.184 19.904 11.7547 19.648 10.56C19.4347 9.36535 18.9653 8.46935 18.24 7.87201C17.5573 7.23201 16.4267 6.91201 14.848 6.91201C13.184 6.91201 11.968 7.31735 11.2 8.12801C10.4747 8.93868 10.0053 10.0053 9.79201 11.328C9.62135 12.6507 9.53601 14.1013 9.53601 15.68V37.376C9.53601 39.168 9.68535 40.7253 9.98401 42.048C10.2827 43.3707 10.8373 44.3947 11.648 45.12C12.4587 45.8027 13.6107 46.144 15.104 46.144C16.64 46.144 17.8133 45.76 18.624 44.992C19.4347 44.224 19.9893 43.1573 20.288 41.792C20.6293 40.4267 20.8 38.8053 20.8 36.928V32.064H15.232V26.112H29.312V52.416H23.232L22.528 47.296C21.8453 49.0027 20.8 50.4107 19.392 51.52C18.0267 52.5867 16.1493 53.12 13.76 53.12ZM36.198 52.416V15.424H44.902V52.416H36.198ZM36.198 9.53601V2.30401H44.902V9.53601H36.198ZM62.825 64.64C60.3077 64.64 58.0677 64.3627 56.105 63.808C54.185 63.296 52.6703 62.5067 51.561 61.44C50.4943 60.3733 49.961 59.008 49.961 57.344C49.961 56.064 50.2383 54.9333 50.793 53.952C51.3903 52.9707 52.1797 52.1387 53.161 51.456C54.185 50.7307 55.273 50.1547 56.425 49.728L60.073 50.304C59.561 50.7307 59.0703 51.1787 58.601 51.648C58.1743 52.1173 57.8117 52.608 57.513 53.12C57.2143 53.632 57.065 54.208 57.065 54.848C57.065 55.872 57.5557 56.64 58.537 57.152C59.561 57.664 61.3103 57.92 63.785 57.92C66.0463 57.92 67.753 57.6853 68.905 57.216C70.057 56.7467 70.633 55.936 70.633 54.784C70.633 54.1013 70.4837 53.5467 70.185 53.12C69.8863 52.736 69.3743 52.416 68.649 52.16C67.9663 51.904 66.985 51.712 65.705 51.584L57.001 50.496C55.209 50.24 53.801 49.6213 52.777 48.64C51.7957 47.616 51.305 46.4213 51.305 45.056C51.305 43.52 51.753 42.176 52.649 41.024C53.5877 39.8293 54.8037 38.592 56.297 37.312L59.241 39.232C58.857 39.6587 58.4943 40.1493 58.153 40.704C57.8117 41.216 57.641 41.7707 57.641 42.368C57.641 42.8373 57.897 43.2213 58.409 43.52C58.921 43.8187 59.7743 44.032 60.969 44.16L68.521 45.056C71.5503 45.3547 73.769 46.3147 75.177 47.936C76.6277 49.5147 77.353 51.6693 77.353 54.4C77.353 56.6613 76.841 58.5387 75.817 60.032C74.8357 61.568 73.2783 62.72 71.145 63.488C69.0117 64.256 66.2383 64.64 62.825 64.64ZM63.273 40.704C60.5423 40.704 58.281 40.1707 56.489 39.104C54.7397 38.0373 53.417 36.544 52.521 34.624C51.625 32.704 51.177 30.4427 51.177 27.84C51.177 25.024 51.6463 22.656 52.585 20.736C53.5237 18.7733 54.889 17.3013 56.681 16.32C58.473 15.3387 60.6703 14.848 63.273 14.848C65.8757 14.848 68.0303 15.4027 69.737 16.512C71.4437 17.6213 72.7237 19.1573 73.577 21.12C74.473 23.0827 74.921 25.344 74.921 27.904C74.921 30.5067 74.4943 32.768 73.641 34.688C72.8303 36.608 71.5717 38.1013 69.865 39.168C68.201 40.192 66.0037 40.704 63.273 40.704ZM63.273 35.136C64.041 35.136 64.6383 34.9867 65.065 34.688C65.5343 34.3893 65.8757 33.9413 66.089 33.344C66.345 32.7467 66.5157 32 66.601 31.104C66.729 30.1653 66.793 29.0773 66.793 27.84C66.793 26.56 66.7503 25.472 66.665 24.576C66.5797 23.6373 66.409 22.8693 66.153 22.272C65.897 21.632 65.5343 21.1627 65.065 20.864C64.6383 20.5653 64.0623 20.416 63.337 20.416C62.569 20.416 61.9503 20.5653 61.481 20.864C61.0117 21.1627 60.6277 21.6107 60.329 22.208C60.073 22.8053 59.9023 23.5733 59.817 24.512C59.7317 25.4507 59.689 26.56 59.689 27.84C59.689 28.992 59.7317 30.0373 59.817 30.976C59.9023 31.872 60.073 32.64 60.329 33.28C60.585 33.8773 60.9477 34.3467 61.417 34.688C61.8863 34.9867 62.505 35.136 63.273 35.136ZM73.129 21.44L71.209 18.752C71.721 17.8133 72.5103 16.9387 73.577 16.128C74.6437 15.3173 75.9237 14.5707 77.417 13.888L79.593 18.624C79.081 18.752 78.3557 18.9867 77.417 19.328C76.521 19.6693 75.6463 20.0533 74.793 20.48C73.9823 20.864 73.4277 21.184 73.129 21.44ZM82.5805 52.416V0.576012H95.3165C97.6205 0.576012 99.6898 0.789346 101.525 1.21601C103.402 1.64268 105.002 2.36801 106.325 3.39201C107.69 4.37335 108.735 5.71735 109.461 7.42402C110.186 9.13068 110.549 11.2853 110.549 13.888C110.549 15.9787 110.25 17.7707 109.653 19.264C109.098 20.7573 108.266 21.952 107.157 22.848C106.047 23.7013 104.661 24.2773 102.997 24.576C105.045 24.9173 106.73 25.6427 108.053 26.752C109.418 27.8187 110.421 29.2267 111.061 30.976C111.743 32.7253 112.085 34.8373 112.085 37.312C112.085 39.7867 111.765 41.984 111.125 43.904C110.527 45.7813 109.61 47.36 108.373 48.64C107.178 49.8773 105.663 50.816 103.829 51.456C102.037 52.096 99.9245 52.416 97.4925 52.416H82.5805ZM92.0525 45.76H95.6365C98.4952 45.76 100.437 45.0773 101.461 43.712C102.485 42.304 102.997 40.1493 102.997 37.248C102.997 35.1573 102.741 33.472 102.229 32.192C101.759 30.8693 100.949 29.888 99.7965 29.248C98.6872 28.608 97.1938 28.288 95.3165 28.288H92.0525V45.76ZM92.0525 21.76H95.2525C97.1298 21.76 98.5805 21.4827 99.6045 20.928C100.629 20.3733 101.333 19.52 101.717 18.368C102.143 17.216 102.357 15.7653 102.357 14.016C102.357 12.1813 102.037 10.7733 101.397 9.79202C100.799 8.76801 99.8818 8.08535 98.6445 7.74401C97.4072 7.36001 95.8285 7.16801 93.9085 7.16801H92.0525V21.76ZM128.83 52.992C126.142 52.992 123.923 52.5013 122.174 51.52C120.424 50.496 119.102 49.024 118.206 47.104C117.352 45.184 116.926 42.8587 116.926 40.128V27.712C116.926 24.9813 117.352 22.656 118.206 20.736C119.102 18.816 120.424 17.3653 122.174 16.384C123.923 15.36 126.142 14.848 128.83 14.848C131.518 14.848 133.736 15.36 135.486 16.384C137.278 17.3653 138.6 18.816 139.454 20.736C140.35 22.656 140.798 24.9813 140.798 27.712V40.128C140.798 42.8587 140.35 45.184 139.454 47.104C138.6 49.024 137.278 50.496 135.486 51.52C133.736 52.5013 131.518 52.992 128.83 52.992ZM128.894 46.976C129.875 46.976 130.6 46.6987 131.07 46.144C131.539 45.5893 131.838 44.8427 131.966 43.904C132.094 42.9227 132.158 41.856 132.158 40.704V27.136C132.158 25.984 132.094 24.9387 131.966 24C131.838 23.0613 131.539 22.3147 131.07 21.76C130.6 21.1627 129.875 20.864 128.894 20.864C127.912 20.864 127.187 21.1627 126.718 21.76C126.248 22.3147 125.928 23.0613 125.758 24C125.63 24.9387 125.566 25.984 125.566 27.136V40.704C125.566 41.856 125.63 42.9227 125.758 43.904C125.928 44.8427 126.248 45.5893 126.718 46.144C127.187 46.6987 127.912 46.976 128.894 46.976ZM157.955 52.992C155.267 52.992 153.048 52.5013 151.299 51.52C149.549 50.496 148.227 49.024 147.331 47.104C146.477 45.184 146.051 42.8587 146.051 40.128V27.712C146.051 24.9813 146.477 22.656 147.331 20.736C148.227 18.816 149.549 17.3653 151.299 16.384C153.048 15.36 155.267 14.848 157.955 14.848C160.643 14.848 162.861 15.36 164.611 16.384C166.403 17.3653 167.725 18.816 168.579 20.736C169.475 22.656 169.923 24.9813 169.923 27.712V40.128C169.923 42.8587 169.475 45.184 168.579 47.104C167.725 49.024 166.403 50.496 164.611 51.52C162.861 52.5013 160.643 52.992 157.955 52.992ZM158.019 46.976C159 46.976 159.725 46.6987 160.195 46.144C160.664 45.5893 160.963 44.8427 161.091 43.904C161.219 42.9227 161.283 41.856 161.283 40.704V27.136C161.283 25.984 161.219 24.9387 161.091 24C160.963 23.0613 160.664 22.3147 160.195 21.76C159.725 21.1627 159 20.864 158.019 20.864C157.037 20.864 156.312 21.1627 155.843 21.76C155.373 22.3147 155.053 23.0613 154.883 24C154.755 24.9387 154.691 25.984 154.691 27.136V40.704C154.691 41.856 154.755 42.9227 154.883 43.904C155.053 44.8427 155.373 45.5893 155.843 46.144C156.312 46.6987 157.037 46.976 158.019 46.976ZM175.944 52.416V0.576012H184.456V30.336L193.224 15.424H202.632L193.864 30.272L202.504 52.416H193.352L187.208 34.176L184.456 38.272V52.416H175.944Z" fill="black"/>
</svg>